<svg width="198" height="69" viewBox="0 0 198 69" fill="none" xmlns="http://www.w3.org/2000/svg">
<path d="M37.766 0C37.766 0 43.8343 14.8458 17.8265 24.8176C3.69444 30.2345 -7.15981 44.1186 5.80016 65.5661C6.87346 55.9794 11.4757 34.8421 31.265 30.0187C31.265 30.0187 12.8463 36.906 11.2192 68.0818C20.6835 69.4106 42.8801 70.3035 49.4702 51.0412C58.1724 25.5914 37.766 0 37.766 0Z" fill="#D2580B"/>
<path d="M3.79518 25.3123C4.83254 25.3123 5.67348 24.4713 5.67348 23.434C5.67348 22.3966 4.83254 21.5557 3.79518 21.5557C2.75782 21.5557 1.91687 22.3966 1.91687 23.434C1.91687 24.4713 2.75782 25.3123 3.79518 25.3123Z" fill="#3A7F0D"/>
<path d="M9.6984 22.8966C10.4393 22.8966 11.04 22.2959 11.04 21.555C11.04 20.814 10.4393 20.2134 9.6984 20.2134C8.95746 20.2134 8.35681 20.814 8.35681 21.555C8.35681 22.2959 8.95746 22.8966 9.6984 22.8966Z" fill="#FC6B10"/>
<path d="M8.49106 12.163C10.3434 12.163 11.845 10.6614 11.845 8.80905C11.845 6.9567 10.3434 5.45508 8.49106 5.45508C6.63871 5.45508 5.13708 6.9567 5.13708 8.80905C5.13708 10.6614 6.63871 12.163 8.49106 12.163Z" fill="#2E63EA"/>
<path d="M18.8213 17.5304C19.4141 17.5304 19.8946 17.0499 19.8946 16.4571C19.8946 15.8643 19.4141 15.3838 18.8213 15.3838C18.2286 15.3838 17.748 15.8643 17.748 16.4571C17.748 17.0499 18.2286 17.5304 18.8213 17.5304Z" fill="#FC6B10"/>
<path d="M27.8111 13.5058C29.5153 13.5058 30.8968 12.1243 30.8968 10.4202C30.8968 8.71598 29.5153 7.33447 27.8111 7.33447C26.107 7.33447 24.7255 8.71598 24.7255 10.4202C24.7255 12.1243 26.107 13.5058 27.8111 13.5058Z" fill="#2E63EA"/>
<path d="M11.2278 67.9521C31.3198 59.9335 45.9391 41.1489 47.9568 18.7246C43.8493 7.64499 37.766 0 37.766 0C37.766 0 43.8343 14.8458 17.8265 24.8176C3.69444 30.2345 -7.15981 44.1186 5.80016 65.5661C6.87346 55.9794 11.4757 34.8421 31.265 30.0187C31.2639 30.0188 12.9 36.8889 11.2278 67.9521Z" fill="#FC6B10"/>
<path d="M18.1903 43.6031L31.3872 29.792L25.9322 30.5053L21.82 33.9881L17.3301 37.5548L12.9661 42.9259L7.51117 53.5841L6.58802 60.2979L6.00056 62.8785L5.7789 65.4176C5.77302 65.4849 5.79219 65.552 5.83272 65.606C6.94555 66.3989 8.16967 67.0226 9.46523 67.4569L11.2667 68.0607L18.1903 43.6031Z" fill="#FC6B10"/>
<path d="M11.2278 67.9521C31.3198 59.9335 45.9391 41.1489 47.9568 18.7246C43.8493 7.64499 37.766 0 37.766 0C37.766 0 43.8343 14.8458 17.8265 24.8176C3.69444 30.2345 -7.15981 44.1186 5.80016 65.5661C6.87346 55.9794 11.4757 34.8421 31.265 30.0187C31.2639 30.0188 12.9 36.8889 11.2278 67.9521Z" fill="#FC6B10"/>
<path d="M18.1903 43.6031L31.3872 29.792L25.9322 30.5053L21.82 33.9881L17.3301 37.5548L12.9661 42.9259L7.51117 53.5841L6.58802 60.2979L6.00056 62.8785L5.7789 65.4176C5.77302 65.4849 5.79219 65.552 5.83272 65.606C6.94555 66.3989 8.16967 67.0226 9.46523 67.4569L11.2667 68.0607L18.1903 43.6031Z" fill="#FC6B10"/>
<mask id="mask0_520_3978" style="mask-type:alpha" maskUnits="userSpaceOnUse" x="0" y="0" width="48" height="69">
<path d="M11.2278 67.9521C31.3198 59.9335 45.9391 41.1489 47.9568 18.7246C43.8493 7.64499 37.766 0 37.766 0C37.766 0 43.8343 14.8458 17.8265 24.8176C3.69444 30.2345 -7.15981 44.1186 5.80016 65.5661C6.87346 55.9794 11.4757 34.8421 31.265 30.0187C31.2639 30.0188 12.9 36.8889 11.2278 67.9521Z" fill="#FC6B10"/>
<path d="M18.1903 43.6031L31.3872 29.792L25.9322 30.5053L21.82 33.9881L17.3301 37.5548L12.9661 42.9259L7.51117 53.5841L6.58802 60.2979L6.00056 62.8785L5.7789 65.4176C5.77302 65.4849 5.79219 65.552 5.83272 65.606C6.94555 66.3989 8.16967 67.0226 9.46523 67.4569L11.2667 68.0607L18.1903 43.6031Z" fill="#FC6B10"/>
</mask>
<g mask="url(#mask0_520_3978)">
<path d="M28.0902 35.0942L22.5002 40.9656C22.284 41.201 21.8676 41.38 21.6106 41.1441L21.4729 41.0176C21.216 40.7817 21.3865 40.3216 21.6084 40.0799L26.6896 33.7214C26.5839 33.6254 26.4763 33.5266 26.3638 33.4233C26.1675 33.243 25.9847 33.0731 25.8107 32.9133L19.8314 38.5994C19.6317 38.8197 19.242 38.9688 18.985 38.7329L18.8473 38.6064C18.5904 38.3705 18.7609 37.9104 18.9828 37.6687L24.3035 31.6605C22.7095 30.6589 21.6839 31.7767 17.1896 36.671C15.6734 38.322 14.9151 40.2756 15.2092 41.9697C15.2492 42.2016 15.3084 42.4281 15.3889 42.649C15.4688 42.8675 15.5716 43.0787 15.6931 43.2831L-3.66737 63.4408C-4.06189 63.8705 -3.60064 64.9408 -3.23271 65.2787L-2.62668 65.8352C-2.25869 66.1731 -1.15411 66.5427 -0.75959 66.1131L17.748 45.0303C17.9791 45.1183 18.2171 45.1773 18.4583 45.2192C18.7546 45.2713 19.0566 45.2888 19.3627 45.2746C20.9163 45.202 22.5577 44.3118 23.908 42.8414C28.5696 37.765 29.4155 36.6754 28.0902 35.0942Z" fill="white"/>
<path d="M12.9015 56.4778L9.97529 59.6644C9.66549 60.0018 9.46148 60.3904 9.35239 60.7835C9.80713 60.7515 10.1366 61.0478 10.299 61.1969C10.4163 61.3046 10.5365 61.4307 10.6639 61.5634C10.7987 61.7038 10.9411 61.8523 11.0991 61.9974L11.2513 62.1372C11.4089 62.2819 11.57 62.411 11.7208 62.5339C11.8644 62.649 11.9997 62.7586 12.117 62.8664C12.2799 63.0159 12.6026 63.3185 12.6093 63.7744C12.9919 63.6322 13.3612 63.3964 13.6714 63.0586L28.9508 46.4197C25.8458 43.4766 13.7913 55.5088 12.9015 56.4778Z" fill="white"/>
<path d="M11.5971 63.434C11.4875 63.3334 11.3614 63.2322 11.2286 63.1248C11.068 62.9961 10.8981 62.858 10.7318 62.7053L10.5791 62.565C10.4123 62.4119 10.2607 62.2539 10.1188 62.1058C10.0006 61.9815 9.88855 61.8651 9.77946 61.7649C9.57244 61.5748 9.42611 61.4821 9.27077 61.5043C9.1401 61.523 9.00358 61.622 8.81751 61.8246L-2.74552 74.4165C-3.55944 75.3029 -3.62774 76.5704 -2.89766 77.2408L-2.74546 77.3806C-2.01484 78.0515 -0.7588 77.8757 0.05563 76.9888L11.6187 64.3969C11.8047 64.1943 11.8913 64.0494 11.8993 63.918C11.9088 63.762 11.8045 63.6245 11.5971 63.434Z" fill="white"/>
</g>
<path d="M89.3289 54.8516H82.9615L76.0334 43.7086L73.6637 45.409V54.8516H68.0561V28.4052H73.6637V40.5068C74.0376 39.9883 74.4054 39.4697 74.7672 38.9512C75.1289 38.4326 75.4967 37.9141 75.8706 37.3955L83.0339 28.4052H89.2566L80.0311 40.1089L89.3289 54.8516ZM100.562 34.248C102.432 34.248 104.041 34.6098 105.392 35.3333C106.743 36.0449 107.786 37.082 108.522 38.4447C109.257 39.8074 109.625 41.4716 109.625 43.4373V46.1145H96.5827C96.643 47.6702 97.1073 48.8942 97.9756 49.7866C98.8559 50.6669 100.074 51.1071 101.63 51.1071C102.92 51.1071 104.102 50.9745 105.175 50.7091C106.248 50.4438 107.352 50.0459 108.485 49.5153V53.7843C107.484 54.2787 106.435 54.6405 105.338 54.8697C104.253 55.0988 102.932 55.2133 101.376 55.2133C99.3503 55.2133 97.5535 54.8395 95.9857 54.0918C94.4301 53.3441 93.206 52.2045 92.3136 50.673C91.4333 49.1414 90.9931 47.2119 90.9931 44.8844C90.9931 42.5208 91.3911 40.5551 92.187 38.9874C92.995 37.4076 94.1165 36.2257 95.5516 35.4419C96.9867 34.646 98.6569 34.248 100.562 34.248ZM100.598 38.1733C99.5252 38.1733 98.6328 38.517 97.9213 39.2044C97.2218 39.8918 96.8179 40.9711 96.7093 42.4424H104.451C104.439 41.6223 104.289 40.8928 103.999 40.2536C103.722 39.6145 103.3 39.108 102.733 38.7341C102.178 38.3603 101.467 38.1733 100.598 38.1733ZM125.598 34.248C127.756 34.248 129.493 34.8389 130.807 36.0207C132.122 37.1905 132.779 39.0718 132.779 41.6646V54.8516H127.262V43.0393C127.262 41.5922 126.997 40.5008 126.466 39.7652C125.947 39.0296 125.127 38.6618 124.006 38.6618C122.318 38.6618 121.166 39.2346 120.551 40.3802C119.936 41.5259 119.628 43.178 119.628 45.3367V54.8516H114.111V34.6279H118.326L119.068 37.2146H119.375C119.809 36.5152 120.346 35.9484 120.985 35.5142C121.636 35.0801 122.354 34.7605 123.138 34.5555C123.934 34.3505 124.754 34.248 125.598 34.248ZM144.863 55.2133C142.608 55.2133 140.769 54.333 139.345 52.5723C137.935 50.7996 137.229 48.2008 137.229 44.7759C137.229 41.3148 137.947 38.6979 139.382 36.9252C140.817 35.1404 142.692 34.248 145.007 34.248C145.972 34.248 146.822 34.3807 147.558 34.646C148.294 34.9113 148.927 35.267 149.457 35.7132C150 36.1594 150.458 36.6599 150.832 37.2146H151.013C150.941 36.8287 150.85 36.2619 150.742 35.5142C150.645 34.7545 150.597 33.9767 150.597 33.1807V26.7048H156.132V54.8516H151.899L150.832 52.2286H150.597C150.247 52.7834 149.807 53.2899 149.276 53.7481C148.758 54.1943 148.137 54.5501 147.413 54.8154C146.69 55.0807 145.84 55.2133 144.863 55.2133ZM146.798 50.8177C148.306 50.8177 149.367 50.3715 149.982 49.4791C150.609 48.5746 150.941 47.2179 150.977 45.409V44.8121C150.977 42.8464 150.675 41.345 150.072 40.3079C149.469 39.2587 148.348 38.7341 146.708 38.7341C145.49 38.7341 144.537 39.2587 143.85 40.3079C143.162 41.357 142.819 42.8705 142.819 44.8483C142.819 46.826 143.162 48.3153 143.85 49.3163C144.549 50.3172 145.532 50.8177 146.798 50.8177ZM167.42 34.6279V54.8516H161.903V34.6279H167.42ZM164.67 26.7048C165.49 26.7048 166.196 26.8978 166.787 27.2837C167.378 27.6575 167.673 28.363 167.673 29.4001C167.673 30.4252 167.378 31.1367 166.787 31.5346C166.196 31.9205 165.49 32.1135 164.67 32.1135C163.838 32.1135 163.127 31.9205 162.536 31.5346C161.957 31.1367 161.668 30.4252 161.668 29.4001C161.668 28.363 161.957 27.6575 162.536 27.2837C163.127 26.8978 163.838 26.7048 164.67 26.7048ZM177.676 28.4052L177.93 28.8032C177.713 29.6835 177.429 30.6241 177.08 31.6251C176.742 32.6139 176.368 33.6088 175.958 34.6098C175.56 35.6107 175.156 36.5634 174.746 37.4679H170.784C170.953 36.7443 171.122 35.9846 171.291 35.1886C171.472 34.3927 171.641 33.5968 171.797 32.8009C171.966 32.0049 172.117 31.2331 172.25 30.4854C172.382 29.7378 172.497 29.0443 172.593 28.4052H177.676ZM195.368 48.846C195.368 50.2207 195.042 51.3845 194.391 52.3372C193.752 53.2778 192.793 53.9953 191.515 54.4898C190.236 54.9722 188.645 55.2133 186.739 55.2133C185.328 55.2133 184.116 55.1229 183.103 54.942C182.102 54.7611 181.089 54.4596 180.064 54.0375V49.4791C181.162 49.9735 182.337 50.3835 183.592 50.7091C184.858 51.0227 185.967 51.1795 186.92 51.1795C187.993 51.1795 188.759 51.0227 189.217 50.7091C189.688 50.3835 189.923 49.9615 189.923 49.4429C189.923 49.1052 189.826 48.8037 189.633 48.5384C189.452 48.2611 189.055 47.9536 188.439 47.6159C187.824 47.2662 186.86 46.8139 185.545 46.2592C184.279 45.7286 183.236 45.1919 182.416 44.6493C181.608 44.1066 181.005 43.4674 180.607 42.7318C180.221 41.9841 180.028 41.0375 180.028 39.8918C180.028 38.0226 180.752 36.6177 182.199 35.677C183.658 34.7243 185.606 34.248 188.042 34.248C189.296 34.248 190.49 34.3746 191.623 34.6279C192.769 34.8811 193.945 35.2851 195.151 35.8398L193.486 39.8195C192.485 39.3853 191.539 39.0296 190.646 38.7522C189.766 38.4748 188.868 38.3361 187.951 38.3361C187.143 38.3361 186.534 38.4447 186.124 38.6618C185.714 38.8788 185.509 39.2105 185.509 39.6567C185.509 39.9823 185.612 40.2717 185.817 40.5249C186.034 40.7782 186.444 41.0616 187.047 41.3751C187.662 41.6766 188.56 42.0685 189.742 42.5509C190.888 43.0212 191.882 43.5157 192.727 44.0342C193.571 44.5407 194.222 45.1739 194.68 45.9336C195.139 46.6813 195.368 47.6521 195.368 48.846Z" fill="#3A3A3A"/>
<path d="M69.5874 58.4085C70.168 58.4085 70.6469 58.481 71.0242 58.6261C71.4048 58.7681 71.6886 58.9857 71.8756 59.2792C72.0627 59.5727 72.1562 59.9468 72.1562 60.4015C72.1562 60.7756 72.0885 61.0885 71.953 61.34C71.8176 61.5883 71.6402 61.7899 71.4209 61.9447C71.2016 62.0995 70.9678 62.2188 70.7194 62.3027L72.6593 65.481H71.7015L69.9696 62.5301H68.499V65.481H67.6766V58.4085H69.5874ZM69.5391 59.1196H68.499V61.8334H69.6213C70.1986 61.8334 70.6227 61.7157 70.8936 61.4803C71.1677 61.2449 71.3048 60.8982 71.3048 60.4402C71.3048 59.9597 71.1597 59.6195 70.8694 59.4195C70.5824 59.2196 70.1389 59.1196 69.5391 59.1196ZM77.3465 60.0823C77.798 60.0823 78.185 60.1822 78.5075 60.3822C78.83 60.5821 79.0767 60.8627 79.2476 61.2239C79.4186 61.5819 79.504 62.0011 79.504 62.4817V62.9799H75.842C75.8517 63.6024 76.0065 64.0765 76.3064 64.4022C76.6063 64.7279 77.0288 64.8908 77.5739 64.8908C77.9093 64.8908 78.206 64.8601 78.464 64.7989C78.722 64.7376 78.9896 64.6473 79.267 64.528V65.2342C78.9993 65.3536 78.7333 65.4406 78.4688 65.4955C78.2076 65.5503 77.898 65.5777 77.54 65.5777C77.0304 65.5777 76.5854 65.4745 76.2048 65.2681C75.8275 65.0585 75.534 64.7521 75.3244 64.349C75.1148 63.9458 75.01 63.4524 75.01 62.8687C75.01 62.2978 75.1051 61.8044 75.2954 61.3884C75.4889 60.9691 75.7598 60.6466 76.1081 60.4209C76.4596 60.1951 76.8724 60.0823 77.3465 60.0823ZM77.3368 60.7402C76.9079 60.7402 76.566 60.8804 76.3113 61.161C76.0565 61.4416 75.9049 61.8334 75.8565 62.3365H78.6623C78.6591 62.0205 78.6091 61.7431 78.5123 61.5045C78.4188 61.2626 78.2753 61.0756 78.0818 60.9433C77.8883 60.8079 77.64 60.7402 77.3368 60.7402ZM84.4863 60.0919C85.1184 60.0919 85.5877 60.2338 85.8941 60.5176C86.2004 60.8014 86.3536 61.2546 86.3536 61.877V65.481H85.7683L85.6135 64.6973H85.5748C85.4264 64.8908 85.2716 65.0536 85.1104 65.1859C84.9491 65.3149 84.7621 65.4132 84.5492 65.481C84.3396 65.5455 84.0816 65.5777 83.7752 65.5777C83.4527 65.5777 83.1657 65.5213 82.9141 65.4084C82.6658 65.2955 82.4691 65.1246 82.3239 64.8956C82.182 64.6666 82.1111 64.3764 82.1111 64.0249C82.1111 63.4959 82.3207 63.0896 82.74 62.8058C83.1592 62.522 83.7978 62.3672 84.6556 62.3414L85.5699 62.3027V61.9786C85.5699 61.5206 85.4716 61.1997 85.2748 61.0159C85.0781 60.8321 84.8008 60.7402 84.4428 60.7402C84.1654 60.7402 83.901 60.7805 83.6494 60.8611C83.3979 60.9417 83.1592 61.0369 82.9335 61.1465L82.6868 60.537C82.9254 60.4144 83.1995 60.3096 83.5091 60.2225C83.8187 60.1355 84.1445 60.0919 84.4863 60.0919ZM85.5603 62.8687L84.7524 62.9025C84.0913 62.9283 83.6252 63.0364 83.3543 63.2267C83.0834 63.4169 82.948 63.6862 82.948 64.0345C82.948 64.3377 83.0399 64.5618 83.2237 64.7069C83.4076 64.8521 83.651 64.9246 83.9542 64.9246C84.4251 64.9246 84.8104 64.794 85.1104 64.5328C85.4103 64.2716 85.5603 63.8797 85.5603 63.3573V62.8687ZM90.4506 65.481H89.6428V57.9537H90.4506V65.481ZM103.748 60.0823C104.332 60.0823 104.772 60.2354 105.069 60.5418C105.366 60.845 105.514 61.3336 105.514 62.0076V65.481H104.721V62.0463C104.721 61.6174 104.627 61.2965 104.44 61.0836C104.256 60.8675 103.982 60.7595 103.618 60.7595C103.105 60.7595 102.732 60.9079 102.5 61.2046C102.268 61.5013 102.152 61.9383 102.152 62.5155V65.481H101.354V62.0463C101.354 61.7593 101.312 61.5206 101.228 61.3303C101.147 61.1401 101.025 60.9982 100.86 60.9046C100.699 60.8079 100.494 60.7595 100.246 60.7595C99.8944 60.7595 99.6122 60.8321 99.3993 60.9772C99.1865 61.1223 99.0317 61.3384 98.9349 61.6254C98.8414 61.9092 98.7946 62.2591 98.7946 62.6752V65.481H97.9916V60.179H98.6398L98.7608 60.9288H98.8043C98.9107 60.745 99.0446 60.5902 99.2058 60.4644C99.3671 60.3386 99.5477 60.2435 99.7476 60.179C99.9476 60.1145 100.16 60.0823 100.386 60.0823C100.789 60.0823 101.126 60.158 101.397 60.3096C101.671 60.458 101.87 60.6853 101.992 60.9917H102.036C102.21 60.6853 102.449 60.458 102.752 60.3096C103.055 60.158 103.387 60.0823 103.748 60.0823ZM110.84 60.0823C111.291 60.0823 111.678 60.1822 112.001 60.3822C112.323 60.5821 112.57 60.8627 112.741 61.2239C112.912 61.5819 112.997 62.0011 112.997 62.4817V62.9799H109.335C109.345 63.6024 109.5 64.0765 109.8 64.4022C110.1 64.7279 110.522 64.8908 111.067 64.8908C111.403 64.8908 111.699 64.8601 111.957 64.7989C112.215 64.7376 112.483 64.6473 112.76 64.528V65.2342C112.493 65.3536 112.227 65.4406 111.962 65.4955C111.701 65.5503 111.391 65.5777 111.033 65.5777C110.524 65.5777 110.079 65.4745 109.698 65.2681C109.321 65.0585 109.027 64.7521 108.818 64.349C108.608 63.9458 108.503 63.4524 108.503 62.8687C108.503 62.2978 108.598 61.8044 108.789 61.3884C108.982 60.9691 109.253 60.6466 109.601 60.4209C109.953 60.1951 110.366 60.0823 110.84 60.0823ZM110.83 60.7402C110.401 60.7402 110.059 60.8804 109.805 61.161C109.55 61.4416 109.398 61.8334 109.35 62.3365H112.156C112.152 62.0205 112.102 61.7431 112.006 61.5045C111.912 61.2626 111.769 61.0756 111.575 60.9433C111.382 60.8079 111.133 60.7402 110.83 60.7402ZM117.98 60.0919C118.612 60.0919 119.081 60.2338 119.387 60.5176C119.694 60.8014 119.847 61.2546 119.847 61.877V65.481H119.262L119.107 64.6973H119.068C118.92 64.8908 118.765 65.0536 118.604 65.1859C118.442 65.3149 118.255 65.4132 118.042 65.481C117.833 65.5455 117.575 65.5777 117.268 65.5777C116.946 65.5777 116.659 65.5213 116.407 65.4084C116.159 65.2955 115.962 65.1246 115.817 64.8956C115.675 64.6666 115.604 64.3764 115.604 64.0249C115.604 63.4959 115.814 63.0896 116.233 62.8058C116.652 62.522 117.291 62.3672 118.149 62.3414L119.063 62.3027V61.9786C119.063 61.5206 118.965 61.1997 118.768 61.0159C118.571 60.8321 118.294 60.7402 117.936 60.7402C117.659 60.7402 117.394 60.7805 117.143 60.8611C116.891 60.9417 116.652 61.0369 116.427 61.1465L116.18 60.537C116.419 60.4144 116.693 60.3096 117.002 60.2225C117.312 60.1355 117.638 60.0919 117.98 60.0919ZM119.054 62.8687L118.246 62.9025C117.585 62.9283 117.118 63.0364 116.848 63.2267C116.577 63.4169 116.441 63.6862 116.441 64.0345C116.441 64.3377 116.533 64.5618 116.717 64.7069C116.901 64.8521 117.144 64.9246 117.447 64.9246C117.918 64.9246 118.304 64.794 118.604 64.5328C118.904 64.2716 119.054 63.8797 119.054 63.3573V62.8687ZM123.944 65.481H123.136V57.9537H123.944V65.481ZM133.526 60.0823C133.978 60.0823 134.365 60.1822 134.687 60.3822C135.01 60.5821 135.257 60.8627 135.427 61.2239C135.598 61.5819 135.684 62.0011 135.684 62.4817V62.9799H132.022C132.032 63.6024 132.186 64.0765 132.486 64.4022C132.786 64.7279 133.209 64.8908 133.754 64.8908C134.089 64.8908 134.386 64.8601 134.644 64.7989C134.902 64.7376 135.169 64.6473 135.447 64.528V65.2342C135.179 65.3536 134.913 65.4406 134.649 65.4955C134.387 65.5503 134.078 65.5777 133.72 65.5777C133.21 65.5777 132.765 65.4745 132.385 65.2681C132.007 65.0585 131.714 64.7521 131.504 64.349C131.295 63.9458 131.19 63.4524 131.19 62.8687C131.19 62.2978 131.285 61.8044 131.475 61.3884C131.669 60.9691 131.94 60.6466 132.288 60.4209C132.639 60.1951 133.052 60.0823 133.526 60.0823ZM133.517 60.7402C133.088 60.7402 132.746 60.8804 132.491 61.161C132.236 61.4416 132.085 61.8334 132.036 62.3365H134.842C134.839 62.0205 134.789 61.7431 134.692 61.5045C134.599 61.2626 134.455 61.0756 134.262 60.9433C134.068 60.8079 133.82 60.7402 133.517 60.7402ZM139.945 62.7671L138.112 60.179H139.031L140.429 62.2204L141.822 60.179H142.732L140.898 62.7671L142.833 65.481H141.914L140.429 63.3186L138.934 65.481H138.025L139.945 62.7671ZM147.995 60.0823C148.656 60.0823 149.183 60.3096 149.577 60.7643C149.97 61.2191 150.167 61.9028 150.167 62.8155C150.167 63.4185 150.076 63.9249 149.896 64.3345C149.715 64.744 149.46 65.0536 149.131 65.2633C148.806 65.4729 148.42 65.5777 147.975 65.5777C147.695 65.5777 147.448 65.5406 147.235 65.4664C147.022 65.3923 146.84 65.2923 146.689 65.1665C146.537 65.0407 146.411 64.9037 146.311 64.7553H146.253C146.263 64.8811 146.274 65.0327 146.287 65.2101C146.303 65.3874 146.311 65.5422 146.311 65.6745V67.8514H145.503V60.179H146.166L146.272 60.9627H146.311C146.414 60.8014 146.54 60.6547 146.689 60.5225C146.837 60.387 147.017 60.2806 147.23 60.2032C147.446 60.1226 147.701 60.0823 147.995 60.0823ZM147.854 60.7595C147.487 60.7595 147.19 60.8305 146.964 60.9724C146.742 61.1143 146.579 61.3271 146.476 61.6109C146.372 61.8915 146.318 62.2446 146.311 62.6703V62.8251C146.311 63.2734 146.36 63.6524 146.456 63.962C146.556 64.2716 146.719 64.507 146.945 64.6682C147.174 64.8295 147.48 64.9101 147.864 64.9101C148.193 64.9101 148.467 64.8214 148.686 64.6441C148.906 64.4667 149.069 64.22 149.175 63.9039C149.285 63.5846 149.339 63.2186 149.339 62.8058C149.339 62.1801 149.217 61.6835 148.972 61.3158C148.73 60.9449 148.357 60.7595 147.854 60.7595ZM155.246 60.0823C155.697 60.0823 156.084 60.1822 156.407 60.3822C156.729 60.5821 156.976 60.8627 157.147 61.2239C157.318 61.5819 157.403 62.0011 157.403 62.4817V62.9799H153.741C153.751 63.6024 153.906 64.0765 154.206 64.4022C154.506 64.7279 154.928 64.8908 155.473 64.8908C155.809 64.8908 156.105 64.8601 156.363 64.7989C156.621 64.7376 156.889 64.6473 157.166 64.528V65.2342C156.899 65.3536 156.633 65.4406 156.368 65.4955C156.107 65.5503 155.797 65.5777 155.439 65.5777C154.93 65.5777 154.485 65.4745 154.104 65.2681C153.727 65.0585 153.433 64.7521 153.224 64.349C153.014 63.9458 152.909 63.4524 152.909 62.8687C152.909 62.2978 153.004 61.8044 153.195 61.3884C153.388 60.9691 153.659 60.6466 154.007 60.4209C154.359 60.1951 154.772 60.0823 155.246 60.0823ZM155.236 60.7402C154.807 60.7402 154.465 60.8804 154.211 61.161C153.956 61.4416 153.804 61.8334 153.756 62.3365H156.562C156.558 62.0205 156.508 61.7431 156.412 61.5045C156.318 61.2626 156.175 61.0756 155.981 60.9433C155.788 60.8079 155.539 60.7402 155.236 60.7402ZM162.811 60.0823C162.918 60.0823 163.029 60.0887 163.145 60.1016C163.261 60.1113 163.364 60.1258 163.455 60.1451L163.353 60.8901C163.266 60.8675 163.169 60.8498 163.063 60.8369C162.956 60.824 162.856 60.8176 162.763 60.8176C162.55 60.8176 162.348 60.8611 162.158 60.9482C161.971 61.032 161.807 61.1546 161.665 61.3158C161.523 61.4739 161.412 61.6657 161.331 61.8915C161.25 62.114 161.21 62.3624 161.21 62.6365V65.481H160.402V60.179H161.07L161.157 61.1562H161.191C161.3 60.9595 161.433 60.7805 161.587 60.6192C161.742 60.4547 161.921 60.3241 162.124 60.2274C162.331 60.1306 162.56 60.0823 162.811 60.0823ZM166.894 60.179V65.481H166.091V60.179H166.894ZM166.502 58.1956C166.634 58.1956 166.747 58.2391 166.841 58.3262C166.937 58.4101 166.986 58.5423 166.986 58.7229C166.986 58.9003 166.937 59.0325 166.841 59.1196C166.747 59.2067 166.634 59.2502 166.502 59.2502C166.363 59.2502 166.247 59.2067 166.154 59.1196C166.063 59.0325 166.018 58.9003 166.018 58.7229C166.018 58.5423 166.063 58.4101 166.154 58.3262C166.247 58.2391 166.363 58.1956 166.502 58.1956ZM172.273 60.0823C172.724 60.0823 173.111 60.1822 173.434 60.3822C173.756 60.5821 174.003 60.8627 174.174 61.2239C174.345 61.5819 174.43 62.0011 174.43 62.4817V62.9799H170.768C170.778 63.6024 170.933 64.0765 171.233 64.4022C171.533 64.7279 171.955 64.8908 172.5 64.8908C172.836 64.8908 173.132 64.8601 173.39 64.7989C173.648 64.7376 173.916 64.6473 174.193 64.528V65.2342C173.926 65.3536 173.66 65.4406 173.395 65.4955C173.134 65.5503 172.824 65.5777 172.466 65.5777C171.957 65.5777 171.512 65.4745 171.131 65.2681C170.754 65.0585 170.46 64.7521 170.251 64.349C170.041 63.9458 169.936 63.4524 169.936 62.8687C169.936 62.2978 170.031 61.8044 170.222 61.3884C170.415 60.9691 170.686 60.6466 171.034 60.4209C171.386 60.1951 171.799 60.0823 172.273 60.0823ZM172.263 60.7402C171.834 60.7402 171.492 60.8804 171.238 61.161C170.983 61.4416 170.831 61.8334 170.783 62.3365H173.589C173.585 62.0205 173.535 61.7431 173.439 61.5045C173.345 61.2626 173.202 61.0756 173.008 60.9433C172.815 60.8079 172.566 60.7402 172.263 60.7402ZM179.94 60.0823C180.569 60.0823 181.044 60.2371 181.367 60.5467C181.689 60.853 181.851 61.3465 181.851 62.0269V65.481H181.057V62.0802C181.057 61.6383 180.956 61.3078 180.753 61.0885C180.553 60.8692 180.245 60.7595 179.829 60.7595C179.242 60.7595 178.829 60.9256 178.59 61.2578C178.352 61.59 178.232 62.0721 178.232 62.7042V65.481H177.429V60.179H178.077L178.198 60.9433H178.242C178.355 60.7563 178.498 60.5999 178.672 60.4741C178.847 60.3451 179.042 60.2483 179.258 60.1838C179.474 60.1161 179.701 60.0823 179.94 60.0823ZM187.264 65.5777C186.786 65.5777 186.365 65.4793 186.001 65.2826C185.637 65.0859 185.353 64.786 185.15 64.3828C184.946 63.9797 184.845 63.4718 184.845 62.859C184.845 62.2172 184.951 61.6932 185.164 61.2868C185.38 60.8772 185.677 60.5741 186.054 60.3773C186.431 60.1806 186.86 60.0823 187.341 60.0823C187.605 60.0823 187.86 60.1097 188.105 60.1645C188.354 60.2161 188.557 60.2822 188.715 60.3628L188.473 61.0352C188.312 60.9707 188.125 60.9127 187.912 60.8611C187.702 60.8095 187.505 60.7837 187.322 60.7837C186.954 60.7837 186.648 60.8627 186.402 61.0207C186.161 61.1788 185.978 61.411 185.856 61.7173C185.736 62.0237 185.677 62.4011 185.677 62.8493C185.677 63.2783 185.735 63.6443 185.851 63.9475C185.97 64.2506 186.146 64.4828 186.378 64.6441C186.614 64.8021 186.907 64.8811 187.259 64.8811C187.539 64.8811 187.792 64.8521 188.018 64.794C188.244 64.7327 188.449 64.6618 188.633 64.5812V65.2971C188.455 65.3874 188.257 65.4568 188.038 65.5051C187.821 65.5535 187.563 65.5777 187.264 65.5777ZM193.566 60.0823C194.018 60.0823 194.405 60.1822 194.727 60.3822C195.05 60.5821 195.297 60.8627 195.468 61.2239C195.639 61.5819 195.724 62.0011 195.724 62.4817V62.9799H192.062C192.072 63.6024 192.226 64.0765 192.526 64.4022C192.826 64.7279 193.249 64.8908 193.794 64.8908C194.129 64.8908 194.426 64.8601 194.684 64.7989C194.942 64.7376 195.21 64.6473 195.487 64.528V65.2342C195.219 65.3536 194.953 65.4406 194.689 65.4955C194.428 65.5503 194.118 65.5777 193.76 65.5777C193.25 65.5777 192.805 65.4745 192.425 65.2681C192.047 65.0585 191.754 64.7521 191.544 64.349C191.335 63.9458 191.23 63.4524 191.23 62.8687C191.23 62.2978 191.325 61.8044 191.515 61.3884C191.709 60.9691 191.98 60.6466 192.328 60.4209C192.68 60.1951 193.092 60.0823 193.566 60.0823ZM193.557 60.7402C193.128 60.7402 192.786 60.8804 192.531 61.161C192.276 61.4416 192.125 61.8334 192.077 62.3365H194.882C194.879 62.0205 194.829 61.7431 194.732 61.5045C194.639 61.2626 194.495 61.0756 194.302 60.9433C194.108 60.8079 193.86 60.7402 193.557 60.7402Z" fill="#3A3A3A"/>
</svg>
