<svg width="97" height="128" viewBox="0 0 97 128" fill="none" xmlns="http://www.w3.org/2000/svg">
<path d="M70.3742 0C70.3742 0 81.6821 27.664 33.2184 46.2459C6.88432 56.3399 -13.3418 82.2118 10.8082 122.178C12.8082 104.314 21.3841 64.9257 58.2601 55.9377C58.2601 55.9377 23.9381 68.7716 20.9063 126.865C38.5423 129.342 79.904 131.005 92.1842 95.1115C108.4 47.6878 70.3742 0 70.3742 0Z" fill="#D2580B"/>
<path d="M7.07199 47.1681C9.00503 47.1681 10.5721 45.6011 10.5721 43.6681C10.5721 41.735 9.00503 40.168 7.07199 40.168C5.13894 40.168 3.5719 41.735 3.5719 43.6681C3.5719 45.6011 5.13894 47.1681 7.07199 47.1681Z" fill="#3A7F0D"/>
<path d="M18.0722 42.6659C19.4528 42.6659 20.5721 41.5467 20.5721 40.166C20.5721 38.7853 19.4528 37.666 18.0722 37.666C16.6915 37.666 15.5722 38.7853 15.5722 40.166C15.5722 41.5467 16.6915 42.6659 18.0722 42.6659Z" fill="#FC6B10"/>
<path d="M15.8225 22.6653C19.2742 22.6653 22.0724 19.8671 22.0724 16.4154C22.0724 12.9637 19.2742 10.1655 15.8225 10.1655C12.3708 10.1655 9.57263 12.9637 9.57263 16.4154C9.57263 19.8671 12.3708 22.6653 15.8225 22.6653Z" fill="#2E63EA"/>
<path d="M35.0721 32.6665C36.1767 32.6665 37.0721 31.7711 37.0721 30.6665C37.0721 29.5619 36.1767 28.6665 35.0721 28.6665C33.9675 28.6665 33.0721 29.5619 33.0721 30.6665C33.0721 31.7711 33.9675 32.6665 35.0721 32.6665Z" fill="#FC6B10"/>
<path d="M51.824 25.1674C54.9997 25.1674 57.574 22.593 57.574 19.4174C57.574 16.2418 54.9997 13.6675 51.824 13.6675C48.6484 13.6675 46.0741 16.2418 46.0741 19.4174C46.0741 22.593 48.6484 25.1674 51.824 25.1674Z" fill="#2E63EA"/>
<path d="M20.9223 126.624C58.3622 111.682 85.6042 76.678 89.364 34.892C81.71 14.2459 70.3742 0 70.3742 0C70.3742 0 81.6821 27.664 33.2184 46.2459C6.88432 56.3399 -13.3418 82.2118 10.8082 122.178C12.8082 104.314 21.3841 64.9257 58.2601 55.9377C58.2581 55.938 24.0382 68.7399 20.9223 126.624Z" fill="#FC6B10"/>
<path d="M33.8965 81.2516L58.4879 55.5156L48.3229 56.8449L40.6601 63.3348L32.2936 69.9811L24.1616 79.9897L13.9967 99.8504L12.2765 112.361L11.1818 117.17L10.7687 121.901C10.7578 122.027 10.7935 122.152 10.869 122.252C12.9427 123.73 15.2237 124.892 17.6379 125.701L20.9949 126.827L33.8965 81.2516Z" fill="#FC6B10"/>
<path d="M20.9223 126.624C58.3622 111.682 85.6042 76.678 89.364 34.892C81.71 14.2459 70.3742 0 70.3742 0C70.3742 0 81.6821 27.664 33.2184 46.2459C6.88432 56.3399 -13.3418 82.2118 10.8082 122.178C12.8082 104.314 21.3841 64.9257 58.2601 55.9377C58.2581 55.938 24.0382 68.7399 20.9223 126.624Z" fill="#FC6B10"/>
<path d="M33.8965 81.2516L58.4879 55.5156L48.3229 56.8449L40.6601 63.3348L32.2936 69.9811L24.1616 79.9897L13.9967 99.8504L12.2765 112.361L11.1818 117.17L10.7687 121.901C10.7578 122.027 10.7935 122.152 10.869 122.252C12.9427 123.73 15.2237 124.892 17.6379 125.701L20.9949 126.827L33.8965 81.2516Z" fill="#FC6B10"/>
<mask id="mask0_520_3838" style="mask-type:alpha" maskUnits="userSpaceOnUse" x="0" y="0" width="90" height="127">
<path d="M20.9223 126.624C58.3622 111.682 85.6042 76.678 89.364 34.892C81.71 14.2459 70.3742 0 70.3742 0C70.3742 0 81.6821 27.664 33.2184 46.2459C6.88432 56.3399 -13.3418 82.2118 10.8082 122.178C12.8082 104.314 21.3841 64.9257 58.2601 55.9377C58.2581 55.938 24.0382 68.7399 20.9223 126.624Z" fill="#FC6B10"/>
<path d="M33.8965 81.2516L58.4879 55.5156L48.3229 56.8449L40.6601 63.3348L32.2936 69.9811L24.1616 79.9897L13.9967 99.8504L12.2765 112.361L11.1818 117.17L10.7687 121.901C10.7578 122.027 10.7935 122.152 10.869 122.252C12.9427 123.73 15.2237 124.892 17.6379 125.701L20.9949 126.827L33.8965 81.2516Z" fill="#FC6B10"/>
</mask>
<g mask="url(#mask0_520_3838)">
<path d="M52.3441 65.3957L41.9275 76.3365C41.5246 76.7752 40.7487 77.1088 40.2699 76.6692L40.0133 76.4335C39.5345 75.9939 39.8522 75.1366 40.2658 74.6862L49.7342 62.8376C49.5372 62.6586 49.3367 62.4745 49.1271 62.282C48.7612 61.946 48.4207 61.6295 48.0964 61.3317L36.9545 71.9273C36.5823 72.3379 35.8561 72.6157 35.3773 72.1761L35.1207 71.9404C34.6419 71.5008 34.9596 70.6435 35.3731 70.1931L45.2879 58.9973C42.3175 57.1309 40.4065 59.2137 32.0316 68.3338C29.2064 71.4104 27.7933 75.0509 28.3413 78.2078C28.4158 78.6397 28.5262 79.0618 28.6761 79.4735C28.8251 79.8806 29.0166 80.2741 29.243 80.6552L-6.83382 118.218C-7.56899 119.018 -6.70947 121.013 -6.02386 121.642L-4.89458 122.679C-4.20885 123.309 -2.15055 123.998 -1.41538 123.197L33.0722 83.9108C33.5027 84.0749 33.9464 84.1847 34.3957 84.263C34.9479 84.3599 35.5106 84.3925 36.081 84.366C38.9761 84.2308 42.0347 82.5721 44.551 79.832C53.2375 70.3725 54.8138 68.3421 52.3441 65.3957Z" fill="white"/>
<path d="M24.0411 105.242L18.5883 111.18C18.011 111.809 17.6308 112.533 17.4275 113.266C18.2749 113.206 18.8888 113.758 19.1914 114.036C19.41 114.237 19.634 114.472 19.8715 114.719C20.1225 114.981 20.388 115.257 20.6825 115.528L20.9661 115.788C21.2597 116.058 21.5599 116.299 21.8409 116.527C22.1085 116.742 22.3605 116.946 22.5791 117.147C22.8827 117.426 23.484 117.99 23.4966 118.839C24.2095 118.574 24.8976 118.135 25.4757 117.505L53.9477 86.4998C48.1618 81.0156 25.6992 103.437 24.0411 105.242Z" fill="white"/>
<path d="M21.6105 118.205C21.4063 118.017 21.1713 117.829 20.9238 117.629C20.6246 117.389 20.308 117.131 19.9982 116.847L19.7136 116.586C19.4028 116.3 19.1202 116.006 18.8559 115.73C18.6356 115.498 18.4268 115.281 18.2235 115.095C17.8378 114.74 17.5651 114.568 17.2756 114.609C17.0321 114.644 16.7777 114.828 16.431 115.206L-5.11587 138.67C-6.63255 140.322 -6.75983 142.683 -5.39938 143.933L-5.11575 144.193C-3.7543 145.443 -1.41376 145.116 0.103868 143.463L21.6507 119.999C21.9975 119.622 22.1587 119.352 22.1737 119.107C22.1915 118.816 21.9971 118.56 21.6105 118.205Z" fill="white"/>
</g>
</svg>
